<svg xmlns="http://www.w3.org/2000/svg" viewBox="0 0 683 1024">
<g stroke="#0d0906" stroke-width="16" stroke-linecap="round" stroke-linejoin="round">
  <path fill="#8b6f42" d="M314 784c17 5 38 4 55-2 9 69 23 130 44 184-20 14-44 20-71 20-27 0-48-5-68-17 19-55 31-117 40-185z"/>
  <path fill="#5e4826" d="M352 789c9 68 20 127 39 179-13 9-28 15-46 18-7-58-5-127 7-197z"/>
  <path fill="#b7a66f" d="M341 47l-48 93 20-11-64 113 27-16-87 137 46-21-112 178 72-34-125 199 116-53-104 165 170-61 109 31 135 4-70-54 171 35-141-117 186 28-169-151 149 20-126-131 93 8-73-90 58 1-61-78 29 2-43-59 13 4z"/>
  <path fill="#84744a" d="M341 47l-14 146 18-14-28 150 26-19-34 166 33-18-41 198 57-38-34 173 104-50 56 18 112 2-45-32 89 17-95-87 120 17-120-112 89 12-90-97 63 6-51-64 41 2-42-54 22 1-36-44 14 2z"/>
  <path fill="#0d0906" fill-opacity=".22" d="M337 157l-66 84 22-7-91 113 47-13-129 154 67-21-136 177 93-39-126 168 159-58 81 22 67 1-144-53 147 27-146-69 141 13-131-68 117 4-102-57 83 5-70-47 51 5-49-41 30 6-37-31 14 5z"/>
  <path fill="#c3b27a" d="M331 923c-66-3-116 15-152 39 44 13 105 17 172 18 65 1 129-3 180-15-42-23-113-39-200-42z"/>
</g>
</svg>
